<svg width="953" height="221" viewBox="0 0 953 221" fill="none" xmlns="http://www.w3.org/2000/svg">
<g filter="url(#filter0_d_0_1)">
<mask id="mask0_0_1" style="mask-type:luminance" maskUnits="userSpaceOnUse" x="767" y="56" width="176" height="106">
<path d="M767.457 56.8728H942.416V161.848H767.457V56.8728Z" fill="white"/>
</mask>
<g mask="url(#mask0_0_1)">
<path fill-rule="evenodd" clip-rule="evenodd" d="M854.936 56.8728C831.608 56.8728 817.028 68.5367 811.196 91.8646C819.944 80.2007 830.15 75.8267 841.814 78.7427C848.469 80.4048 853.226 85.2356 858.49 90.5783C867.067 99.2842 876.994 109.361 898.676 109.361C922.004 109.361 936.584 97.6966 942.416 74.3687C933.668 86.0327 923.462 90.4066 911.798 87.4906C905.143 85.8285 900.387 80.9977 895.122 75.655C886.546 66.9492 876.618 56.8728 854.936 56.8728ZM811.196 109.361C787.869 109.361 773.289 121.024 767.457 144.352C776.205 132.688 786.411 128.314 798.075 131.23C804.729 132.896 809.486 137.723 814.751 143.066C823.327 151.772 833.254 161.848 854.936 161.848C878.264 161.848 892.844 150.184 898.676 126.856C889.928 138.52 879.722 142.894 868.058 139.978C861.403 138.316 856.647 133.485 851.382 128.143C842.806 119.437 832.878 109.361 811.196 109.361Z" fill="#38BDF8"/>
</g>
</g>
<g filter="url(#filter1_d_0_1)">
<path fill-rule="evenodd" clip-rule="evenodd" d="M675.273 70.7399C675.273 68.5307 673.482 66.7399 671.273 66.7399H659.273C657.064 66.7399 655.273 68.5307 655.273 70.7399V92.7399C655.273 94.949 653.482 96.7399 651.273 96.7399H629.273C627.064 96.7399 625.273 98.5307 625.273 100.74V112.74C625.273 114.949 627.064 116.74 629.273 116.74H651.273C653.482 116.74 655.273 118.531 655.273 120.74V142.74C655.273 144.949 657.064 146.74 659.273 146.74H671.273C673.482 146.74 675.273 144.949 675.273 142.74V120.74C675.273 118.531 677.064 116.74 679.273 116.74H701.273C703.482 116.74 705.273 114.949 705.273 112.74V100.74C705.273 98.5307 703.482 96.7399 701.273 96.7399H679.273C677.064 96.7399 675.273 94.949 675.273 92.7399V70.7399Z" fill="#C6C6C6"/>
</g>
<g filter="url(#filter2_d_0_1)">
<path fill-rule="evenodd" clip-rule="evenodd" d="M282.789 70.7399C282.789 68.5307 280.998 66.7399 278.789 66.7399H266.789C264.579 66.7399 262.789 68.5307 262.789 70.7399V92.7399C262.789 94.949 260.998 96.7399 258.789 96.7399H236.789C234.579 96.7399 232.789 98.5307 232.789 100.74V112.74C232.789 114.949 234.579 116.74 236.789 116.74H258.789C260.998 116.74 262.789 118.531 262.789 120.74V142.74C262.789 144.949 264.579 146.74 266.789 146.74H278.789C280.998 146.74 282.789 144.949 282.789 142.74V120.74C282.789 118.531 284.579 116.74 286.789 116.74H308.789C310.998 116.74 312.789 114.949 312.789 112.74V100.74C312.789 98.5307 310.998 96.7399 308.789 96.7399H286.789C284.579 96.7399 282.789 94.949 282.789 92.7399V70.7399Z" fill="#C6C6C6"/>
</g>
<g filter="url(#filter3_d_0_1)">
<path d="M401.816 146.986C404.499 146.986 406.673 144.814 406.673 142.134C406.673 139.454 404.499 137.282 401.816 137.282C399.134 137.282 396.959 139.454 396.959 142.134C396.959 144.814 399.134 146.986 401.816 146.986Z" fill="#DEDEDE"/>
<path d="M461.817 172.102C458.96 172.102 456.96 174.385 456.96 176.954C456.96 179.809 459.246 181.806 461.817 181.806C464.674 181.806 466.674 179.523 466.674 176.954C466.674 174.1 464.389 172.102 461.817 172.102Z" fill="#DEDEDE"/>
<path d="M461.817 42.2345C464.674 42.2345 466.674 39.9511 466.674 37.3822C466.674 34.8134 464.389 32.2446 461.817 32.2446C458.96 32.2446 456.96 34.528 456.96 37.0968C456.96 39.6657 458.96 42.2345 461.817 42.2345Z" fill="#DEDEDE"/>
<path d="M521.816 77.0575C524.673 77.0575 526.673 74.7739 526.673 72.2051C526.673 69.6362 524.387 67.353 521.816 67.353C519.245 67.353 516.959 69.6362 516.959 72.2051C516.959 74.7739 518.959 77.0575 521.816 77.0575Z" fill="#DEDEDE"/>
<path d="M401.816 77.055C404.673 77.055 406.673 74.7714 406.673 72.2026C406.673 69.6337 404.673 67.0651 401.816 67.0651C398.959 67.0651 396.959 69.3484 396.959 71.9172C396.959 74.4861 398.959 77.055 401.816 77.055Z" fill="#DEDEDE"/>
<path d="M521.816 146.986C524.498 146.986 526.673 144.814 526.673 142.134C526.673 139.454 524.498 137.282 521.816 137.282C519.133 137.282 516.959 139.454 516.959 142.134C516.959 144.814 519.133 146.986 521.816 146.986Z" fill="#DEDEDE"/>
<path d="M461.817 102.173C458.96 102.173 456.96 104.457 456.96 107.025C456.96 109.594 459.246 111.878 461.817 111.878C464.674 111.878 466.674 109.594 466.674 107.025C466.674 104.457 464.389 102.173 461.817 102.173Z" fill="#DEDEDE"/>
<path d="M558.386 103.886H494.958H494.672C494.386 100.46 493.529 97.0353 492.101 93.8958L511.815 82.4787L514.672 80.7661L511.244 75.0574L508.387 76.77L488.958 88.1871C486.672 85.0475 483.815 82.193 480.386 79.9098L480.958 79.0535L512.958 24.2516L514.672 21.3973L508.958 17.9722L507.244 20.8264L475.244 75.343L474.672 76.1993C471.529 75.0574 468.387 74.2011 464.958 73.6304V51.6525V48.5128H458.387V51.6525V73.6304C454.958 73.9158 451.529 74.772 448.672 76.1993L447.815 75.343L416.101 20.8264L414.386 17.9722L408.672 21.3973L410.387 24.2516L442.101 78.7682L442.672 79.6241C439.529 81.9077 436.672 84.7619 434.387 87.9017L414.958 76.4846L412.101 74.772L408.672 80.4804L411.529 82.193L431.244 93.6101C429.815 96.75 428.958 100.175 428.672 103.6H428.387H365.244H361.815V110.165H365.244H428.387H428.672C428.958 113.59 429.815 117.015 431.244 120.155L411.529 131.572L408.672 133.285L412.101 138.993L414.958 137.28L434.387 125.864C436.387 128.718 438.672 131.001 441.244 132.999L440.386 134.141L408.958 189.228L407.244 192.082L412.958 195.507L414.672 192.653L446.386 138.137L446.958 136.995C450.387 138.708 454.101 139.849 458.387 140.135V161.827V165.252H464.958V161.827V140.135C469.244 139.849 472.958 138.422 476.672 136.71L477.244 137.566L509.244 192.368L510.958 195.222L516.672 191.797L514.958 188.943L483.244 134.426L482.672 133.285C485.244 131.287 487.53 129.003 489.244 126.434L508.672 137.851L511.53 139.564L514.958 133.855L512.101 132.143L492.387 120.726C493.815 117.586 494.672 114.161 494.958 110.736H495.244H558.386H561.815V103.886H558.386ZM461.815 133.285C447.244 133.285 435.529 121.582 435.529 107.025C435.529 92.4685 447.244 80.7661 461.815 80.7661C476.387 80.7661 488.101 92.4685 488.101 107.025C488.101 121.582 476.101 133.285 461.815 133.285Z" fill="#DEDEDE"/>
</g>
<g filter="url(#filter4_d_0_1)">
<path fill-rule="evenodd" clip-rule="evenodd" d="M40.8759 74.2435L40.8759 139.235L97.1597 171.73L153.444 139.235V74.2435L97.1598 41.748L40.8759 74.2435ZM65.2475 78.9339L97.1597 97.3584L129.072 78.9339L97.1597 60.5093L65.2475 78.9339ZM137.196 93.0048L105.284 111.429V148.278L137.196 129.854V93.0048ZM89.0358 148.278V111.429L57.1236 93.0048L57.1236 129.854L89.0358 148.278Z" fill="#EF3939"/>
<path fill-rule="evenodd" clip-rule="evenodd" d="M26.8052 66.1204L26.8052 147.359L97.16 187.979L167.515 147.359V66.1204L97.16 25.5011L26.8052 66.1204ZM10.5574 56.7398L97.16 6.73981L183.763 56.7398V156.74L97.16 206.74L10.5574 156.74L10.5574 56.7398Z" fill="#C6C6C6"/>
</g>
<defs>
<filter id="filter0_d_0_1" x="757.457" y="50.8728" width="194.959" height="124.975" filterUnits="userSpaceOnUse" color-interpolation-filters="sRGB">
<feFlood flood-opacity="0" result="BackgroundImageFix"/>
<feColorMatrix in="SourceAlpha" type="matrix" values="0 0 0 0 0 0 0 0 0 0 0 0 0 0 0 0 0 0 127 0" result="hardAlpha"/>
<feOffset dy="4"/>
<feGaussianBlur stdDeviation="5"/>
<feComposite in2="hardAlpha" operator="out"/>
<feColorMatrix type="matrix" values="0 0 0 0 0 0 0 0 0 0 0 0 0 0 0 0 0 0 0.25 0"/>
<feBlend mode="normal" in2="BackgroundImageFix" result="effect1_dropShadow_0_1"/>
<feBlend mode="normal" in="SourceGraphic" in2="effect1_dropShadow_0_1" result="shape"/>
</filter>
<filter id="filter1_d_0_1" x="615.273" y="60.7399" width="100" height="100" filterUnits="userSpaceOnUse" color-interpolation-filters="sRGB">
<feFlood flood-opacity="0" result="BackgroundImageFix"/>
<feColorMatrix in="SourceAlpha" type="matrix" values="0 0 0 0 0 0 0 0 0 0 0 0 0 0 0 0 0 0 127 0" result="hardAlpha"/>
<feOffset dy="4"/>
<feGaussianBlur stdDeviation="5"/>
<feComposite in2="hardAlpha" operator="out"/>
<feColorMatrix type="matrix" values="0 0 0 0 0 0 0 0 0 0 0 0 0 0 0 0 0 0 0.25 0"/>
<feBlend mode="normal" in2="BackgroundImageFix" result="effect1_dropShadow_0_1"/>
<feBlend mode="normal" in="SourceGraphic" in2="effect1_dropShadow_0_1" result="shape"/>
</filter>
<filter id="filter2_d_0_1" x="222.789" y="60.7399" width="100" height="100" filterUnits="userSpaceOnUse" color-interpolation-filters="sRGB">
<feFlood flood-opacity="0" result="BackgroundImageFix"/>
<feColorMatrix in="SourceAlpha" type="matrix" values="0 0 0 0 0 0 0 0 0 0 0 0 0 0 0 0 0 0 127 0" result="hardAlpha"/>
<feOffset dy="4"/>
<feGaussianBlur stdDeviation="5"/>
<feComposite in2="hardAlpha" operator="out"/>
<feColorMatrix type="matrix" values="0 0 0 0 0 0 0 0 0 0 0 0 0 0 0 0 0 0 0.25 0"/>
<feBlend mode="normal" in2="BackgroundImageFix" result="effect1_dropShadow_0_1"/>
<feBlend mode="normal" in="SourceGraphic" in2="effect1_dropShadow_0_1" result="shape"/>
</filter>
<filter id="filter3_d_0_1" x="357.815" y="17.9722" width="208" height="185.535" filterUnits="userSpaceOnUse" color-interpolation-filters="sRGB">
<feFlood flood-opacity="0" result="BackgroundImageFix"/>
<feColorMatrix in="SourceAlpha" type="matrix" values="0 0 0 0 0 0 0 0 0 0 0 0 0 0 0 0 0 0 127 0" result="hardAlpha"/>
<feOffset dy="4"/>
<feGaussianBlur stdDeviation="2"/>
<feComposite in2="hardAlpha" operator="out"/>
<feColorMatrix type="matrix" values="0 0 0 0 0 0 0 0 0 0 0 0 0 0 0 0 0 0 0.25 0"/>
<feBlend mode="normal" in2="BackgroundImageFix" result="effect1_dropShadow_0_1"/>
<feBlend mode="normal" in="SourceGraphic" in2="effect1_dropShadow_0_1" result="shape"/>
</filter>
<filter id="filter4_d_0_1" x="0.557434" y="0.739807" width="193.205" height="220" filterUnits="userSpaceOnUse" color-interpolation-filters="sRGB">
<feFlood flood-opacity="0" result="BackgroundImageFix"/>
<feColorMatrix in="SourceAlpha" type="matrix" values="0 0 0 0 0 0 0 0 0 0 0 0 0 0 0 0 0 0 127 0" result="hardAlpha"/>
<feOffset dy="4"/>
<feGaussianBlur stdDeviation="5"/>
<feComposite in2="hardAlpha" operator="out"/>
<feColorMatrix type="matrix" values="0 0 0 0 0 0 0 0 0 0 0 0 0 0 0 0 0 0 0.25 0"/>
<feBlend mode="normal" in2="BackgroundImageFix" result="effect1_dropShadow_0_1"/>
<feBlend mode="normal" in="SourceGraphic" in2="effect1_dropShadow_0_1" result="shape"/>
</filter>
</defs>
</svg>
