<svg width="966" height="221" viewBox="0 0 966 221" fill="none" xmlns="http://www.w3.org/2000/svg">
<g filter="url(#filter0_d_0_1)">
<path fill-rule="evenodd" clip-rule="evenodd" d="M26.9953 72.1575L91.6995 109.514L91.6995 184.228L26.9953 146.871L26.9953 72.1575ZM34.1847 84.6098L34.1847 142.721L84.5101 171.776L84.5101 113.665L34.1847 84.6098Z" fill="#EF3939"/>
<path fill-rule="evenodd" clip-rule="evenodd" d="M102.228 109.514L166.932 72.1575L166.932 146.871L102.228 184.228L102.228 109.514ZM109.417 113.665L109.417 171.776L159.743 142.721L159.743 84.6099L109.417 113.665Z" fill="#EF3939"/>
<path fill-rule="evenodd" clip-rule="evenodd" d="M97.0024 26.499L161.707 63.856L97.0024 101.213L32.2982 63.856L97.0024 26.499ZM97.0024 34.8006L46.6769 63.856L97.0024 92.9114L147.328 63.856L97.0024 34.8006Z" fill="#EF3939"/>
<path fill-rule="evenodd" clip-rule="evenodd" d="M97.0024 6.47656L183.605 56.4766V156.477L97.0024 206.477L10.3998 156.477V56.4766L97.0024 6.47656ZM18.7014 61.2695L97.0024 16.0624L175.303 61.2695V151.684L97.0024 196.891L18.7014 151.684V61.2695Z" fill="#C6C6C6"/>
</g>
<g filter="url(#filter1_d_0_1)">
<mask id="mask0_0_1" style="mask-type:luminance" maskUnits="userSpaceOnUse" x="780" y="56" width="176" height="106">
<path d="M780.457 56.6095H955.416V161.585H780.457V56.6095Z" fill="white"/>
</mask>
<g mask="url(#mask0_0_1)">
<path fill-rule="evenodd" clip-rule="evenodd" d="M867.936 56.6095C844.608 56.6095 830.028 68.2734 824.196 91.6013C832.944 79.9374 843.15 75.5634 854.814 78.4794C861.469 80.1415 866.226 84.9723 871.49 90.315C880.067 99.0209 889.994 109.097 911.676 109.097C935.004 109.097 949.584 97.4333 955.416 74.1054C946.668 85.7693 936.462 90.1433 924.798 87.2273C918.143 85.5652 913.387 80.7344 908.122 75.3917C899.546 66.6858 889.618 56.6095 867.936 56.6095ZM824.196 109.097C800.869 109.097 786.289 120.761 780.457 144.089C789.205 132.425 799.411 128.051 811.075 130.967C817.729 132.632 822.486 137.46 827.751 142.803C836.327 151.509 846.254 161.585 867.936 161.585C891.264 161.585 905.844 149.921 911.676 126.593C902.928 138.257 892.722 142.631 881.058 139.715C874.403 138.053 869.647 133.222 864.382 127.879C855.806 119.174 845.878 109.097 824.196 109.097Z" fill="#38BDF8"/>
</g>
</g>
<g filter="url(#filter2_d_0_1)">
<path fill-rule="evenodd" clip-rule="evenodd" d="M688.273 70.4766C688.273 68.2674 686.482 66.4766 684.273 66.4766H672.273C670.064 66.4766 668.273 68.2674 668.273 70.4766V92.4766C668.273 94.6857 666.482 96.4766 664.273 96.4766H642.273C640.064 96.4766 638.273 98.2674 638.273 100.477V112.477C638.273 114.686 640.064 116.477 642.273 116.477H664.273C666.482 116.477 668.273 118.267 668.273 120.477V142.477C668.273 144.686 670.064 146.477 672.273 146.477H684.273C686.482 146.477 688.273 144.686 688.273 142.477V120.477C688.273 118.267 690.064 116.477 692.273 116.477H714.273C716.482 116.477 718.273 114.686 718.273 112.477V100.477C718.273 98.2674 716.482 96.4766 714.273 96.4766H692.273C690.064 96.4766 688.273 94.6857 688.273 92.4766V70.4766Z" fill="#C6C6C6"/>
</g>
<g filter="url(#filter3_d_0_1)">
<path fill-rule="evenodd" clip-rule="evenodd" d="M295.789 70.4766C295.789 68.2674 293.998 66.4766 291.789 66.4766H279.789C277.579 66.4766 275.789 68.2674 275.789 70.4766V92.4766C275.789 94.6857 273.998 96.4766 271.789 96.4766H249.789C247.579 96.4766 245.789 98.2674 245.789 100.477V112.477C245.789 114.686 247.579 116.477 249.789 116.477H271.789C273.998 116.477 275.789 118.267 275.789 120.477V142.477C275.789 144.686 277.579 146.477 279.789 146.477H291.789C293.998 146.477 295.789 144.686 295.789 142.477V120.477C295.789 118.267 297.579 116.477 299.789 116.477H321.789C323.998 116.477 325.789 114.686 325.789 112.477V100.477C325.789 98.2674 323.998 96.4766 321.789 96.4766H299.789C297.579 96.4766 295.789 94.6857 295.789 92.4766V70.4766Z" fill="#C6C6C6"/>
</g>
<path d="M414.816 146.723C417.499 146.723 419.673 144.55 419.673 141.87C419.673 139.191 417.499 137.018 414.816 137.018C412.134 137.018 409.959 139.191 409.959 141.87C409.959 144.55 412.134 146.723 414.816 146.723Z" fill="white"/>
<path d="M474.817 171.839C471.96 171.839 469.96 174.122 469.96 176.691C469.96 179.545 472.246 181.543 474.817 181.543C477.675 181.543 479.674 179.26 479.674 176.691C479.674 173.837 477.389 171.839 474.817 171.839Z" fill="white"/>
<path d="M474.817 41.9713C477.675 41.9713 479.674 39.6878 479.674 37.119C479.674 34.5502 477.389 31.9813 474.817 31.9813C471.96 31.9813 469.96 34.2647 469.96 36.8336C469.96 39.4024 471.96 41.9713 474.817 41.9713Z" fill="white"/>
<path d="M534.816 76.7942C537.673 76.7942 539.673 74.5107 539.673 71.9418C539.673 69.373 537.387 67.0897 534.816 67.0897C532.245 67.0897 529.959 69.373 529.959 71.9418C529.959 74.5107 531.959 76.7942 534.816 76.7942Z" fill="white"/>
<path d="M414.816 76.7917C417.673 76.7917 419.673 74.5082 419.673 71.9393C419.673 69.3704 417.673 66.8019 414.816 66.8019C411.959 66.8019 409.959 69.0851 409.959 71.654C409.959 74.2229 411.959 76.7917 414.816 76.7917Z" fill="white"/>
<path d="M534.816 146.723C537.498 146.723 539.673 144.55 539.673 141.87C539.673 139.191 537.498 137.018 534.816 137.018C532.133 137.018 529.959 139.191 529.959 141.87C529.959 144.55 532.133 146.723 534.816 146.723Z" fill="white"/>
<path d="M474.817 101.91C471.96 101.91 469.96 104.193 469.96 106.762C469.96 109.331 472.246 111.615 474.817 111.615C477.675 111.615 479.674 109.331 479.674 106.762C479.674 104.193 477.389 101.91 474.817 101.91Z" fill="white"/>
<path d="M571.387 103.622H507.958H507.672C507.387 100.197 506.529 96.772 505.101 93.6325L524.815 82.2154L527.672 80.5028L524.244 74.7941L521.387 76.5067L501.958 87.9238C499.672 84.7843 496.815 81.9298 493.386 79.6465L493.958 78.7903L525.958 23.9883L527.672 21.1341L521.958 17.7089L520.244 20.5632L488.244 75.0798L487.672 75.9361C484.529 74.7941 481.387 73.9378 477.958 73.3672V51.3893V48.2496H471.387V51.3893V73.3672C467.958 73.6525 464.529 74.5088 461.672 75.9361L460.815 75.0798L429.101 20.5632L427.387 17.7089L421.672 21.1341L423.387 23.9883L455.101 78.5049L455.672 79.3609C452.529 81.6444 449.672 84.4986 447.387 87.6385L427.958 76.2214L425.101 74.5088L421.672 80.2172L424.529 81.9298L444.244 93.3469C442.815 96.4867 441.958 99.9119 441.672 103.337H441.387H378.244H374.815V109.902H378.244H441.387H441.672C441.958 113.327 442.815 116.752 444.244 119.892L424.529 131.309L421.672 133.021L425.101 138.73L427.958 137.017L447.387 125.6C449.387 128.454 451.672 130.738 454.244 132.736L453.386 133.878L421.958 188.965L420.244 191.819L425.958 195.244L427.672 192.39L459.387 137.873L459.958 136.732C463.387 138.444 467.101 139.586 471.387 139.872V161.564V164.989H477.958V161.564V139.872C482.244 139.586 485.958 138.159 489.672 136.446L490.244 137.303L522.244 192.104L523.958 194.959L529.672 191.534L527.958 188.68L496.244 134.163L495.672 133.021C498.244 131.023 500.53 128.74 502.244 126.171L521.672 137.588L524.53 139.301L527.958 133.592L525.101 131.88L505.387 120.463C506.815 117.323 507.672 113.898 507.958 110.473H508.244H571.387H574.815V103.622H571.387ZM474.815 133.021C460.244 133.021 448.529 121.319 448.529 106.762C448.529 92.2053 460.244 80.5028 474.815 80.5028C489.387 80.5028 501.101 92.2053 501.101 106.762C501.101 121.319 489.101 133.021 474.815 133.021Z" fill="white"/>
<defs>
<filter id="filter0_d_0_1" x="0.399841" y="0.476562" width="193.205" height="220" filterUnits="userSpaceOnUse" color-interpolation-filters="sRGB">
<feFlood flood-opacity="0" result="BackgroundImageFix"/>
<feColorMatrix in="SourceAlpha" type="matrix" values="0 0 0 0 0 0 0 0 0 0 0 0 0 0 0 0 0 0 127 0" result="hardAlpha"/>
<feOffset dy="4"/>
<feGaussianBlur stdDeviation="5"/>
<feComposite in2="hardAlpha" operator="out"/>
<feColorMatrix type="matrix" values="0 0 0 0 0 0 0 0 0 0 0 0 0 0 0 0 0 0 0.25 0"/>
<feBlend mode="normal" in2="BackgroundImageFix" result="effect1_dropShadow_0_1"/>
<feBlend mode="normal" in="SourceGraphic" in2="effect1_dropShadow_0_1" result="shape"/>
</filter>
<filter id="filter1_d_0_1" x="770.457" y="50.6095" width="194.959" height="124.975" filterUnits="userSpaceOnUse" color-interpolation-filters="sRGB">
<feFlood flood-opacity="0" result="BackgroundImageFix"/>
<feColorMatrix in="SourceAlpha" type="matrix" values="0 0 0 0 0 0 0 0 0 0 0 0 0 0 0 0 0 0 127 0" result="hardAlpha"/>
<feOffset dy="4"/>
<feGaussianBlur stdDeviation="5"/>
<feComposite in2="hardAlpha" operator="out"/>
<feColorMatrix type="matrix" values="0 0 0 0 0 0 0 0 0 0 0 0 0 0 0 0 0 0 0.25 0"/>
<feBlend mode="normal" in2="BackgroundImageFix" result="effect1_dropShadow_0_1"/>
<feBlend mode="normal" in="SourceGraphic" in2="effect1_dropShadow_0_1" result="shape"/>
</filter>
<filter id="filter2_d_0_1" x="628.273" y="60.4766" width="100" height="100" filterUnits="userSpaceOnUse" color-interpolation-filters="sRGB">
<feFlood flood-opacity="0" result="BackgroundImageFix"/>
<feColorMatrix in="SourceAlpha" type="matrix" values="0 0 0 0 0 0 0 0 0 0 0 0 0 0 0 0 0 0 127 0" result="hardAlpha"/>
<feOffset dy="4"/>
<feGaussianBlur stdDeviation="5"/>
<feComposite in2="hardAlpha" operator="out"/>
<feColorMatrix type="matrix" values="0 0 0 0 0 0 0 0 0 0 0 0 0 0 0 0 0 0 0.25 0"/>
<feBlend mode="normal" in2="BackgroundImageFix" result="effect1_dropShadow_0_1"/>
<feBlend mode="normal" in="SourceGraphic" in2="effect1_dropShadow_0_1" result="shape"/>
</filter>
<filter id="filter3_d_0_1" x="235.789" y="60.4766" width="100" height="100" filterUnits="userSpaceOnUse" color-interpolation-filters="sRGB">
<feFlood flood-opacity="0" result="BackgroundImageFix"/>
<feColorMatrix in="SourceAlpha" type="matrix" values="0 0 0 0 0 0 0 0 0 0 0 0 0 0 0 0 0 0 127 0" result="hardAlpha"/>
<feOffset dy="4"/>
<feGaussianBlur stdDeviation="5"/>
<feComposite in2="hardAlpha" operator="out"/>
<feColorMatrix type="matrix" values="0 0 0 0 0 0 0 0 0 0 0 0 0 0 0 0 0 0 0.25 0"/>
<feBlend mode="normal" in2="BackgroundImageFix" result="effect1_dropShadow_0_1"/>
<feBlend mode="normal" in="SourceGraphic" in2="effect1_dropShadow_0_1" result="shape"/>
</filter>
</defs>
</svg>
