<svg width="174" height="201" viewBox="0 0 174 201" fill="none" xmlns="http://www.w3.org/2000/svg">
    <path fill-rule="evenodd" clip-rule="evenodd" d="M16.9547 65.7366L81.6588 103.094L81.6588 177.807L16.9547 140.45L16.9547 65.7366ZM24.144 78.1889L24.144 136.3L74.4695 165.355L74.4695 107.244L24.144 78.1889Z" fill="#EF3939"/>
    <path fill-rule="evenodd" clip-rule="evenodd" d="M92.1874 103.094L156.892 65.7366L156.892 140.45L92.1874 177.807L92.1874 103.094ZM99.3768 107.244L99.3768 165.355L149.702 136.3L149.702 78.1889L99.3768 107.244Z" fill="#EF3939"/>
    <path fill-rule="evenodd" clip-rule="evenodd" d="M86.9617 20.0781L151.666 57.435L86.9617 94.792L22.2576 57.435L86.9617 20.0781ZM86.9617 28.3796L36.6363 57.435L86.9617 86.4904L137.287 57.435L86.9617 28.3796Z" fill="#EF3939"/>
    <path fill-rule="evenodd" clip-rule="evenodd" d="M86.9617 0.055603L173.564 50.0556V150.056L86.9617 200.056L0.359184 150.056V50.0556L86.9617 0.055603ZM8.66073 54.8485L86.9617 9.6414L165.263 54.8485V145.263L86.9617 190.47L8.66073 145.263V54.8485Z" fill="#C6C6C6"/>
</svg>
