<svg width="194" height="221" viewBox="0 0 194 221" fill="none" xmlns="http://www.w3.org/2000/svg">
    <g filter="url(#filter0_d_1_40)">
        <path fill-rule="evenodd" clip-rule="evenodd" d="M26.9547 71.7366L91.6588 109.094L91.6588 183.807L26.9547 146.45L26.9547 71.7366ZM34.144 84.1889L34.144 142.3L84.4695 171.355L84.4695 113.244L34.144 84.1889Z" fill="#EF3939"/>
        <path fill-rule="evenodd" clip-rule="evenodd" d="M102.187 109.094L166.892 71.7366L166.892 146.45L102.187 183.807L102.187 109.094ZM109.377 113.244L109.377 171.355L159.702 142.3L159.702 84.1889L109.377 113.244Z" fill="#EF3939"/>
        <path fill-rule="evenodd" clip-rule="evenodd" d="M96.9617 26.0781L161.666 63.435L96.9617 100.792L32.2576 63.435L96.9617 26.0781ZM96.9617 34.3796L46.6363 63.435L96.9617 92.4904L147.287 63.435L96.9617 34.3796Z" fill="#EF3939"/>
        <path fill-rule="evenodd" clip-rule="evenodd" d="M96.9617 6.0556L183.564 56.0556V156.056L96.9617 206.056L10.3592 156.056V56.0556L96.9617 6.0556ZM18.6607 60.8485L96.9617 15.6414L175.263 60.8485V151.263L96.9617 196.47L18.6607 151.263V60.8485Z" fill="#C6C6C6"/>
    </g>
    <defs>
        <filter id="filter0_d_1_40" x="0.359184" y="0.055603" width="193.205" height="220" filterUnits="userSpaceOnUse" color-interpolation-filters="sRGB">
            <feFlood flood-opacity="0" result="BackgroundImageFix"/>
            <feColorMatrix in="SourceAlpha" type="matrix" values="0 0 0 0 0 0 0 0 0 0 0 0 0 0 0 0 0 0 127 0" result="hardAlpha"/>
            <feOffset dy="4"/>
            <feGaussianBlur stdDeviation="5"/>
            <feComposite in2="hardAlpha" operator="out"/>
            <feColorMatrix type="matrix" values="0 0 0 0 0 0 0 0 0 0 0 0 0 0 0 0 0 0 0.25 0"/>
            <feBlend mode="normal" in2="BackgroundImageFix" result="effect1_dropShadow_1_40"/>
            <feBlend mode="normal" in="SourceGraphic" in2="effect1_dropShadow_1_40" result="shape"/>
        </filter>
    </defs>
</svg>
