<svg width="195" height="221" viewBox="0 0 195 221" fill="none" xmlns="http://www.w3.org/2000/svg">
<g filter="url(#filter0_d_60_2)">
<path fill-rule="evenodd" clip-rule="evenodd" d="M41.2025 74.2196L41.2025 139.211L97.4863 171.706L153.77 139.211V74.2196L97.4863 41.7241L41.2025 74.2196ZM65.5741 78.9099L97.4863 97.3345L129.399 78.9099L97.4863 60.4854L65.5741 78.9099ZM137.522 92.9809L105.61 111.405V148.254L137.522 129.83V92.9809ZM89.3624 148.254V111.405L57.4502 92.9809L57.4502 129.83L89.3624 148.254Z" fill="#EF3939"/>
<path fill-rule="evenodd" clip-rule="evenodd" d="M27.1318 66.0965L27.1318 147.335L97.4866 187.955L167.841 147.335V66.0965L97.4866 25.4772L27.1318 66.0965ZM10.884 56.7159L97.4866 6.71588L184.089 56.7159V156.716L97.4866 206.716L10.884 156.716L10.884 56.7159Z" fill="#C6C6C6"/>
</g>
<defs>
<filter id="filter0_d_60_2" x="0.884033" y="0.715881" width="193.205" height="220" filterUnits="userSpaceOnUse" color-interpolation-filters="sRGB">
<feFlood flood-opacity="0" result="BackgroundImageFix"/>
<feColorMatrix in="SourceAlpha" type="matrix" values="0 0 0 0 0 0 0 0 0 0 0 0 0 0 0 0 0 0 127 0" result="hardAlpha"/>
<feOffset dy="4"/>
<feGaussianBlur stdDeviation="5"/>
<feComposite in2="hardAlpha" operator="out"/>
<feColorMatrix type="matrix" values="0 0 0 0 0 0 0 0 0 0 0 0 0 0 0 0 0 0 0.25 0"/>
<feBlend mode="normal" in2="BackgroundImageFix" result="effect1_dropShadow_60_2"/>
<feBlend mode="normal" in="SourceGraphic" in2="effect1_dropShadow_60_2" result="shape"/>
</filter>
</defs>
</svg>
