<svg width="966" height="221" viewBox="0 0 966 221" fill="none" xmlns="http://www.w3.org/2000/svg">
<g filter="url(#filter0_d_0_1)">
<path fill-rule="evenodd" clip-rule="evenodd" d="M26.9953 72.1575L91.6995 109.514L91.6995 184.228L26.9953 146.871L26.9953 72.1575ZM34.1847 84.6098L34.1847 142.721L84.5101 171.776L84.5101 113.665L34.1847 84.6098Z" fill="#EF3939"/>
<path fill-rule="evenodd" clip-rule="evenodd" d="M102.228 109.515L166.932 72.1576L166.932 146.871L102.228 184.228L102.228 109.515ZM109.417 113.665L109.417 171.776L159.743 142.721L159.743 84.6099L109.417 113.665Z" fill="#EF3939"/>
<path fill-rule="evenodd" clip-rule="evenodd" d="M97.0024 26.499L161.707 63.856L97.0024 101.213L32.2982 63.856L97.0024 26.499ZM97.0024 34.8006L46.6769 63.856L97.0024 92.9114L147.328 63.856L97.0024 34.8006Z" fill="#EF3939"/>
<path fill-rule="evenodd" clip-rule="evenodd" d="M97.0024 6.47656L183.605 56.4766V156.477L97.0024 206.477L10.3998 156.477V56.4766L97.0024 6.47656ZM18.7014 61.2695L97.0024 16.0624L175.303 61.2695V151.684L97.0024 196.891L18.7014 151.684V61.2695Z" fill="#C6C6C6"/>
</g>
<g filter="url(#filter1_d_0_1)">
<mask id="mask0_0_1" style="mask-type:luminance" maskUnits="userSpaceOnUse" x="780" y="56" width="176" height="106">
<path d="M780.457 56.6095H955.416V161.585H780.457V56.6095Z" fill="white"/>
</mask>
<g mask="url(#mask0_0_1)">
<path fill-rule="evenodd" clip-rule="evenodd" d="M867.936 56.6095C844.608 56.6095 830.028 68.2734 824.196 91.6013C832.944 79.9374 843.15 75.5634 854.814 78.4794C861.469 80.1415 866.226 84.9723 871.49 90.315C880.067 99.0209 889.994 109.097 911.676 109.097C935.004 109.097 949.584 97.4333 955.416 74.1054C946.668 85.7693 936.462 90.1433 924.798 87.2273C918.143 85.5652 913.387 80.7344 908.122 75.3917C899.546 66.6858 889.618 56.6095 867.936 56.6095ZM824.196 109.097C800.869 109.097 786.289 120.761 780.457 144.089C789.205 132.425 799.411 128.051 811.075 130.967C817.729 132.632 822.486 137.46 827.751 142.803C836.327 151.509 846.254 161.585 867.936 161.585C891.264 161.585 905.844 149.921 911.676 126.593C902.928 138.257 892.722 142.631 881.058 139.715C874.403 138.053 869.647 133.222 864.382 127.879C855.806 119.174 845.878 109.097 824.196 109.097Z" fill="#38BDF8"/>
</g>
</g>
<g filter="url(#filter2_d_0_1)">
<path fill-rule="evenodd" clip-rule="evenodd" d="M688.273 70.4766C688.273 68.2674 686.482 66.4766 684.273 66.4766H672.273C670.064 66.4766 668.273 68.2674 668.273 70.4766V92.4766C668.273 94.6857 666.482 96.4766 664.273 96.4766H642.273C640.064 96.4766 638.273 98.2674 638.273 100.477V112.477C638.273 114.686 640.064 116.477 642.273 116.477H664.273C666.482 116.477 668.273 118.267 668.273 120.477V142.477C668.273 144.686 670.064 146.477 672.273 146.477H684.273C686.482 146.477 688.273 144.686 688.273 142.477V120.477C688.273 118.267 690.064 116.477 692.273 116.477H714.273C716.482 116.477 718.273 114.686 718.273 112.477V100.477C718.273 98.2674 716.482 96.4766 714.273 96.4766H692.273C690.064 96.4766 688.273 94.6857 688.273 92.4766V70.4766Z" fill="#C6C6C6"/>
</g>
<g filter="url(#filter3_d_0_1)">
<path fill-rule="evenodd" clip-rule="evenodd" d="M295.789 70.4766C295.789 68.2674 293.998 66.4766 291.789 66.4766H279.789C277.579 66.4766 275.789 68.2674 275.789 70.4766V92.4766C275.789 94.6857 273.998 96.4766 271.789 96.4766H249.789C247.579 96.4766 245.789 98.2674 245.789 100.477V112.477C245.789 114.686 247.579 116.477 249.789 116.477H271.789C273.998 116.477 275.789 118.267 275.789 120.477V142.477C275.789 144.686 277.579 146.477 279.789 146.477H291.789C293.998 146.477 295.789 144.686 295.789 142.477V120.477C295.789 118.267 297.579 116.477 299.789 116.477H321.789C323.998 116.477 325.789 114.686 325.789 112.477V100.477C325.789 98.2674 323.998 96.4766 321.789 96.4766H299.789C297.579 96.4766 295.789 94.6857 295.789 92.4766V70.4766Z" fill="#C6C6C6"/>
</g>
<g filter="url(#filter4_d_0_1)">
<path d="M469.673 9.08761C469.227 17.3665 463.272 19.3089 460.056 12.2081C459.642 11.2529 459.165 9.78813 459.069 8.99208L458.846 7.52735L456.458 8.00498L454.102 8.48261L454.357 9.78813C454.802 12.1126 454.611 15.1058 453.879 16.5387C453.051 18.1626 452.573 18.5765 451.141 18.7994C449.517 19.0542 448.561 18.7039 447.065 17.3665C445.887 16.2839 443.944 12.9723 443.944 11.9534C443.944 11.7623 443.849 11.5713 443.753 11.5713C443.403 11.5713 439.677 12.9405 439.423 13.1315C439.295 13.2589 439.391 14.0231 439.646 14.8829C440.346 17.2392 440.282 20.296 439.455 21.7607C437.608 25.0723 433.277 24.0215 430.475 19.6273L429.201 17.6213L427.577 18.5765C426.686 19.1179 425.762 19.6592 425.54 19.7865C425.221 19.9776 425.317 20.4552 425.953 21.8563C427.546 25.2952 427.323 28.575 425.444 30.1989C423.533 31.791 420.095 30.7721 417.452 27.8426L415.955 26.155L414.013 27.6515C412.962 28.4476 412.102 29.1799 412.102 29.2436C412.102 29.3073 412.516 30.0397 413.057 30.8676C414.968 33.8926 415 37.1723 413.153 38.637C411.402 40.0063 407.39 39.1147 404.715 36.7902L403.6 35.8031L402.677 36.822C402.167 37.3952 401.403 38.2231 400.957 38.7326L400.193 39.5923L401.34 40.8023C402.772 42.267 403.791 44.2731 404.014 46.0244C404.174 47.1389 404.046 47.6165 403.441 48.5081C401.976 50.6733 399.111 50.8962 395.64 49.1449C394.621 48.6036 393.729 48.1897 393.602 48.1897C393.506 48.1897 392.838 49.0494 392.105 50.1002L390.768 51.9789L391.755 52.7112C393.124 53.7302 394.748 56.0547 395.258 57.6468C395.799 59.5573 395.258 61.2768 393.825 62.1683C392.424 63.0599 389.176 63.0917 386.947 62.232L385.323 61.627L384.272 63.7286L383.221 65.862L384.941 66.9765C388.412 69.2054 389.622 72.8354 387.616 74.8733C386.374 76.0833 384.336 76.6246 381.502 76.4973L379.209 76.3699L378.827 77.4844C378.604 78.0894 378.35 79.1083 378.254 79.7133C378.031 80.7959 378.063 80.8596 379.464 81.4009C381.502 82.2607 383.667 84.2986 384.113 85.7633C385.005 88.7246 382.107 91.1764 377.713 91.1764H375.866L375.643 93.3099C375.516 94.4562 375.356 95.6025 375.293 95.7935C375.197 96.0164 375.866 96.3667 376.98 96.6851C380.547 97.6722 382.807 100.124 382.362 102.512C381.98 104.455 379.177 106.27 375.643 106.843C375.07 106.938 375.006 107.225 374.911 109.422L374.815 111.874H375.675C377.554 111.874 380.324 112.925 381.566 114.103C382.935 115.408 383.158 116.618 382.362 118.179C381.566 119.707 378.891 121.745 377.649 121.745C376.503 121.777 376.375 122.222 376.757 124.674L377.14 127.031H379.114C384.209 126.967 386.724 130.024 384.591 133.686C383.858 134.896 381.661 136.711 380.929 136.711C380.26 136.711 380.26 137.475 380.929 139.513C381.311 140.691 381.661 141.678 381.693 141.742C381.725 141.773 382.489 141.646 383.412 141.455C386.469 140.818 389.813 142.219 390.29 144.321C390.672 146.072 389.908 147.823 387.839 149.893L385.896 151.804L386.82 153.523C388.03 155.784 388.189 155.88 389.654 155.338C391.246 154.765 394.175 154.733 395.194 155.275C398.028 156.707 397.932 160.433 394.971 163.522L393.857 164.7L395.194 166.483C395.958 167.47 396.754 168.362 396.977 168.425C397.2 168.521 397.996 168.298 398.729 167.916C401.499 166.515 404.715 166.833 405.893 168.68C406.785 170.017 406.434 172.883 405.161 174.953C404.587 175.844 404.174 176.672 404.205 176.8C404.269 176.927 405.033 177.691 405.957 178.519L407.581 180.048L409.141 178.965C411.274 177.468 412.516 177.054 414.204 177.246C416.369 177.468 417.261 178.519 417.452 180.876C417.547 182.34 417.42 183.136 416.783 184.728L415.955 186.703L417.834 187.976C418.853 188.677 419.84 189.25 419.967 189.25C420.126 189.25 420.763 188.741 421.368 188.104C423.502 185.875 426.431 185.047 428.119 186.161C429.838 187.276 430.38 190.205 429.456 193.262C429.201 194.122 428.978 194.854 428.978 194.886C428.978 195.045 432.768 196.892 433.054 196.892C433.213 196.892 433.755 196.319 434.264 195.587C436.111 192.88 439.072 191.638 441.047 192.657C442.766 193.549 443.467 195.268 443.435 198.357V200.936L445.664 201.668C446.906 202.051 447.956 202.273 447.988 202.114C448.052 201.955 448.53 201.063 449.039 200.14C450.313 197.975 452.191 196.574 453.911 196.574C456.267 196.574 458.273 199.535 458.273 203.038C458.273 204.693 458.369 204.757 461.266 205.044L463.304 205.267L463.782 203.674C464.801 200.267 466.074 198.803 468.24 198.58C470.946 198.261 472.857 200.236 473.685 204.279L474.099 206.286L476.487 206.381L478.875 206.477L479.098 204.789C479.544 201.35 481.613 198.484 483.683 198.484C485.753 198.484 488.014 200.649 489.096 203.643C489.669 205.33 489.701 205.33 492.503 204.757L494.414 204.343L494.446 202.146C494.478 199.471 495.274 197.433 496.77 196.16C497.98 195.141 498.713 195.109 500.464 195.905C502.024 196.606 503.648 198.421 504.476 200.331C504.826 201.159 505.24 201.668 505.495 201.573C505.686 201.509 506.705 201.159 507.724 200.841C509.539 200.267 509.603 200.236 509.412 199.28C508.679 195.3 508.934 193.198 510.303 191.702C511.991 189.855 514.538 190.301 517.022 192.88C517.913 193.772 518.869 194.854 519.155 195.3L519.665 196.096L521.734 195.013L523.804 193.931L523.167 192.498C522.339 190.651 522.085 187.499 522.594 185.938C523.677 182.595 527.753 182.85 531.414 186.448L533.038 188.072L534.121 187.371C534.694 187.021 535.586 186.352 536.095 185.907L536.987 185.079L536.191 183.901C534.917 182.086 534.28 180.334 534.28 178.583C534.28 176.641 534.726 175.717 535.968 175.08C538.133 173.966 541.413 174.762 543.896 177.023L545.234 178.201L546.826 176.641C547.686 175.813 548.386 174.985 548.386 174.826C548.386 174.666 547.877 173.966 547.24 173.265C545.075 170.845 544.088 167.757 544.915 165.91C546.062 163.394 551.093 163.426 554.341 166.005C554.786 166.356 555.264 166.642 555.391 166.642C555.519 166.642 556.251 165.814 557.047 164.763L558.512 162.917L556.601 161.229C552.43 157.535 552.112 153.237 555.965 151.963C557.493 151.453 560.136 151.804 562.206 152.727L563.893 153.523L564.944 151.326C565.549 150.116 565.963 149.097 565.868 149.033C565.804 148.97 564.976 148.492 564.021 147.983C559.881 145.786 558.257 141.773 560.518 139.385C561.824 137.984 565.103 137.57 568.001 138.462C568.861 138.717 569.72 138.94 569.943 138.94C570.262 138.94 571.631 135.501 571.631 134.673C571.631 134.482 570.803 134.068 569.784 133.781C567.523 133.112 565.167 131.584 564.307 130.215C562.046 126.521 565.931 123.273 571.981 123.783L574.401 123.974L574.783 121.554C575.006 120.248 575.134 119.102 575.07 119.07C575.038 119.038 573.987 118.815 572.777 118.592C567.651 117.701 564.753 114.485 566.441 111.555C567.3 110.091 570.485 108.371 572.363 108.371C573.096 108.371 574.242 108.276 574.911 108.18L576.089 107.957V105.474V102.958H573.924C570.103 102.958 567.428 101.748 566.377 99.5828C565.868 98.5001 565.868 98.3409 566.377 97.0354C567.269 94.7109 569.625 93.1825 573.541 92.4183C574.815 92.1636 575.42 91.9088 575.325 91.6541C575.261 91.463 575.102 90.4759 574.974 89.5207C574.656 87.0688 574.56 86.9415 572.873 87.3236C569.593 88.0878 566.218 87.6101 564.562 86.1454C562.238 84.012 563.511 80.3501 567.332 78.2167C568.383 77.6436 569.784 77.0704 570.421 76.9749L571.599 76.7838L570.708 74.332C570.198 72.9946 569.689 71.9438 569.529 71.9757C569.37 72.0075 568.415 72.3259 567.428 72.7081C563.893 73.9499 559.531 73.2494 558.639 71.2433C557.302 68.3457 559.595 64.652 563.925 62.7733C564.753 62.4231 565.454 62.0728 565.517 62.041C565.708 61.8817 563.32 57.392 563.097 57.4875C562.97 57.5512 562.015 58.0289 560.964 58.5702C555.71 61.3086 550.934 60.1941 550.934 56.2457C550.934 54.176 553.959 50.0047 556.474 48.6036C557.047 48.2852 556.984 48.126 555.423 46.1518L553.736 44.0502L552.494 45.1328C548.928 48.3807 544.183 49.0176 542.655 46.502C541.222 44.2094 542.527 39.9426 545.361 37.427L546.762 36.1852L544.947 34.402C543.928 33.4149 542.973 32.5871 542.814 32.5871C542.623 32.5871 542.145 33.0965 541.699 33.7015C540.553 35.2936 538.292 36.9176 536.382 37.5226C534.917 38.0002 534.535 38.0002 533.389 37.6499C531.478 37.0131 530.714 35.8668 530.746 33.606C530.746 31.5363 531.574 29.4028 533.134 27.4605C533.675 26.76 534.057 26.0276 533.962 25.8047C533.898 25.5818 532.975 24.8176 531.924 24.0852L530.045 22.7797L529.185 24.1171C528.071 25.9002 525.938 27.97 524.537 28.6705C523.9 28.9889 522.69 29.2436 521.862 29.2436C520.556 29.2436 520.174 29.1163 519.537 28.3521C518.55 27.2057 518.041 25.1997 518.295 23.5439C518.55 22.0792 519.824 19.0223 520.556 18.2263C520.97 17.7486 520.811 17.5894 518.805 16.5387C517.595 15.9018 516.48 15.3923 516.321 15.3923C516.194 15.3923 515.812 16.0929 515.493 16.9526C514.347 20.2323 510.462 23.3529 508.106 22.9071C506.96 22.6842 505.59 21.3786 505.113 20.0731C504.572 18.6721 504.731 15.7426 505.399 13.8002C505.75 12.845 506.068 11.9216 506.132 11.7623C506.195 11.5394 501.96 9.97918 501.228 9.97918C501.101 9.97918 500.942 10.5842 500.814 11.2847C500.528 13.1315 499.19 15.8381 497.98 17.0163C495.592 19.4363 493.236 19.2452 491.548 16.5387C490.625 15.0421 490.593 14.7873 490.561 11.2847L490.529 7.59103L489.287 7.36814C488.587 7.24077 487.536 7.14524 486.899 7.14524L485.721 7.1134L485.339 9.21498C484.575 13.8002 481.836 16.8889 479.193 16.2202C476.964 15.6789 475.213 12.6539 474.927 8.89655L474.736 6.47656H472.284H469.832L469.673 9.08761ZM481.677 25.6136C501.642 26.9192 515.43 34.4339 516.162 44.3049C516.449 48.6673 514.729 52.2654 510.176 56.787C506.45 60.5444 501.833 63.6331 495.369 66.8173C482.505 73.0902 467.571 77.1023 451.746 78.4715C446.492 78.9173 435.57 78.6625 431.526 77.962C419.808 75.9878 413.694 71.7528 412.421 64.6839C411.051 57.201 417.802 47.2662 429.615 39.4013C442.161 31.0268 457.987 25.9957 473.239 25.4863C474.736 25.4226 476.105 25.3589 476.264 25.3271C476.455 25.2952 478.875 25.4226 481.677 25.6136ZM529.44 54.1123C531 54.9402 532.656 57.0099 533.134 58.7931C533.898 61.6589 532.274 65.1615 529.377 66.881C524.759 69.5875 518.455 65.8938 518.455 60.4489C518.455 57.7104 520.493 54.7491 523.072 53.762C524.791 53.1252 527.848 53.2844 529.44 54.1123ZM544.31 73.1538C556.188 78.7899 560.582 104.264 553.799 128.432C549.31 144.448 539.216 160.306 528.294 168.553C522.499 172.915 516.417 174.857 511.927 173.838C504.253 172.023 500.241 163.394 500.241 148.651C500.241 138.143 502.152 127.254 506.004 115.345C513.137 93.4372 525.11 76.0833 535.458 72.7081C538.197 71.8165 541.859 71.9757 544.31 73.1538ZM414.841 79.8725C417.388 81.3691 418.789 84.4578 418.311 87.3554C417.993 89.2341 416.337 91.4949 414.65 92.3546C412.707 93.3417 409.555 93.3736 407.963 92.4183C405.256 90.7943 404.046 88.7883 404.046 86.0817C404.078 83.8846 404.683 82.4517 406.307 80.8915C408.695 78.567 411.975 78.1849 414.841 79.8725ZM481.518 87.642C485.88 89.043 490.338 92.5457 492.599 96.3667C498.999 107.034 494.223 120.726 482.537 125.343C480.467 126.139 479.512 126.33 476.582 126.457C470.341 126.712 465.915 124.993 461.617 120.662C457.445 116.491 455.726 112.415 455.726 106.715C455.726 100.984 457.509 96.6851 461.617 92.6093C464.482 89.7436 466.871 88.3107 470.437 87.3554C473.494 86.5275 478.493 86.6549 481.518 87.642ZM414.586 101.684C419.649 102.894 425.922 105.951 432.322 110.314C442.957 117.542 455.312 129.928 463.113 141.2C471.551 153.396 476.296 165.4 475.659 173.011C475.181 178.519 472.952 182.117 468.717 184.092C466.138 185.333 464.005 185.747 460.534 185.747C445.759 185.747 424.903 173.552 412.007 157.312C400.894 143.397 394.366 126.394 395.576 114.644C396.309 107.511 399.302 103.181 404.619 101.493C406.625 100.856 411.529 100.952 414.586 101.684ZM492.694 165.432C494.35 165.91 496.42 167.757 497.152 169.317C497.853 170.877 497.948 173.87 497.343 175.335C496.133 178.201 493.618 179.825 490.402 179.857C488.619 179.857 488.077 179.729 486.74 178.901C484.67 177.596 483.428 175.558 483.206 173.042C483.046 171.387 483.142 170.877 483.874 169.381C485.498 166.037 489.224 164.381 492.694 165.432Z" fill="#C6C6C6"/>
</g>
<defs>
<filter id="filter0_d_0_1" x="0.399841" y="0.476562" width="193.205" height="220" filterUnits="userSpaceOnUse" color-interpolation-filters="sRGB">
<feFlood flood-opacity="0" result="BackgroundImageFix"/>
<feColorMatrix in="SourceAlpha" type="matrix" values="0 0 0 0 0 0 0 0 0 0 0 0 0 0 0 0 0 0 127 0" result="hardAlpha"/>
<feOffset dy="4"/>
<feGaussianBlur stdDeviation="5"/>
<feComposite in2="hardAlpha" operator="out"/>
<feColorMatrix type="matrix" values="0 0 0 0 0 0 0 0 0 0 0 0 0 0 0 0 0 0 0.25 0"/>
<feBlend mode="normal" in2="BackgroundImageFix" result="effect1_dropShadow_0_1"/>
<feBlend mode="normal" in="SourceGraphic" in2="effect1_dropShadow_0_1" result="shape"/>
</filter>
<filter id="filter1_d_0_1" x="770.457" y="50.6095" width="194.959" height="124.975" filterUnits="userSpaceOnUse" color-interpolation-filters="sRGB">
<feFlood flood-opacity="0" result="BackgroundImageFix"/>
<feColorMatrix in="SourceAlpha" type="matrix" values="0 0 0 0 0 0 0 0 0 0 0 0 0 0 0 0 0 0 127 0" result="hardAlpha"/>
<feOffset dy="4"/>
<feGaussianBlur stdDeviation="5"/>
<feComposite in2="hardAlpha" operator="out"/>
<feColorMatrix type="matrix" values="0 0 0 0 0 0 0 0 0 0 0 0 0 0 0 0 0 0 0.25 0"/>
<feBlend mode="normal" in2="BackgroundImageFix" result="effect1_dropShadow_0_1"/>
<feBlend mode="normal" in="SourceGraphic" in2="effect1_dropShadow_0_1" result="shape"/>
</filter>
<filter id="filter2_d_0_1" x="628.273" y="60.4766" width="100" height="100" filterUnits="userSpaceOnUse" color-interpolation-filters="sRGB">
<feFlood flood-opacity="0" result="BackgroundImageFix"/>
<feColorMatrix in="SourceAlpha" type="matrix" values="0 0 0 0 0 0 0 0 0 0 0 0 0 0 0 0 0 0 127 0" result="hardAlpha"/>
<feOffset dy="4"/>
<feGaussianBlur stdDeviation="5"/>
<feComposite in2="hardAlpha" operator="out"/>
<feColorMatrix type="matrix" values="0 0 0 0 0 0 0 0 0 0 0 0 0 0 0 0 0 0 0.25 0"/>
<feBlend mode="normal" in2="BackgroundImageFix" result="effect1_dropShadow_0_1"/>
<feBlend mode="normal" in="SourceGraphic" in2="effect1_dropShadow_0_1" result="shape"/>
</filter>
<filter id="filter3_d_0_1" x="235.789" y="60.4766" width="100" height="100" filterUnits="userSpaceOnUse" color-interpolation-filters="sRGB">
<feFlood flood-opacity="0" result="BackgroundImageFix"/>
<feColorMatrix in="SourceAlpha" type="matrix" values="0 0 0 0 0 0 0 0 0 0 0 0 0 0 0 0 0 0 127 0" result="hardAlpha"/>
<feOffset dy="4"/>
<feGaussianBlur stdDeviation="5"/>
<feComposite in2="hardAlpha" operator="out"/>
<feColorMatrix type="matrix" values="0 0 0 0 0 0 0 0 0 0 0 0 0 0 0 0 0 0 0.25 0"/>
<feBlend mode="normal" in2="BackgroundImageFix" result="effect1_dropShadow_0_1"/>
<feBlend mode="normal" in="SourceGraphic" in2="effect1_dropShadow_0_1" result="shape"/>
</filter>
<filter id="filter4_d_0_1" x="370.815" y="6.47656" width="209.274" height="208" filterUnits="userSpaceOnUse" color-interpolation-filters="sRGB">
<feFlood flood-opacity="0" result="BackgroundImageFix"/>
<feColorMatrix in="SourceAlpha" type="matrix" values="0 0 0 0 0 0 0 0 0 0 0 0 0 0 0 0 0 0 127 0" result="hardAlpha"/>
<feOffset dy="4"/>
<feGaussianBlur stdDeviation="2"/>
<feComposite in2="hardAlpha" operator="out"/>
<feColorMatrix type="matrix" values="0 0 0 0 0 0 0 0 0 0 0 0 0 0 0 0 0 0 0.25 0"/>
<feBlend mode="normal" in2="BackgroundImageFix" result="effect1_dropShadow_0_1"/>
<feBlend mode="normal" in="SourceGraphic" in2="effect1_dropShadow_0_1" result="shape"/>
</filter>
</defs>
</svg>
