<svg width="953" height="221" viewBox="0 0 953 221" fill="none" xmlns="http://www.w3.org/2000/svg">
<g filter="url(#filter0_d_0_1)">
<mask id="mask0_0_1" style="mask-type:luminance" maskUnits="userSpaceOnUse" x="767" y="56" width="176" height="106">
<path d="M767.457 56.8727H942.416V161.848H767.457V56.8727Z" fill="white"/>
</mask>
<g mask="url(#mask0_0_1)">
<path fill-rule="evenodd" clip-rule="evenodd" d="M854.936 56.8727C831.608 56.8727 817.028 68.5367 811.196 91.8646C819.944 80.2006 830.15 75.8266 841.814 78.7426C848.469 80.4047 853.226 85.2356 858.49 90.5783C867.067 99.2841 876.994 109.36 898.676 109.36C922.004 109.36 936.584 97.6965 942.416 74.3687C933.668 86.0326 923.462 90.4066 911.798 87.4906C905.143 85.8285 900.387 80.9977 895.122 75.6549C886.546 66.9491 876.618 56.8727 854.936 56.8727ZM811.196 109.36C787.869 109.36 773.289 121.024 767.457 144.352C776.205 132.688 786.411 128.314 798.075 131.23C804.729 132.896 809.486 137.723 814.751 143.066C823.327 151.772 833.254 161.848 854.936 161.848C878.264 161.848 892.844 150.184 898.676 126.856C889.928 138.52 879.722 142.894 868.058 139.978C861.403 138.316 856.647 133.485 851.382 128.143C842.806 119.437 832.878 109.36 811.196 109.36Z" fill="#38BDF8"/>
</g>
</g>
<g filter="url(#filter1_d_0_1)">
<path fill-rule="evenodd" clip-rule="evenodd" d="M675.273 70.7398C675.273 68.5307 673.482 66.7398 671.273 66.7398H659.273C657.064 66.7398 655.273 68.5307 655.273 70.7398V92.7398C655.273 94.9489 653.482 96.7398 651.273 96.7398H629.273C627.064 96.7398 625.273 98.5307 625.273 100.74V112.74C625.273 114.949 627.064 116.74 629.273 116.74H651.273C653.482 116.74 655.273 118.531 655.273 120.74V142.74C655.273 144.949 657.064 146.74 659.273 146.74H671.273C673.482 146.74 675.273 144.949 675.273 142.74V120.74C675.273 118.531 677.064 116.74 679.273 116.74H701.273C703.482 116.74 705.273 114.949 705.273 112.74V100.74C705.273 98.5307 703.482 96.7398 701.273 96.7398H679.273C677.064 96.7398 675.273 94.9489 675.273 92.7398V70.7398Z" fill="#C6C6C6"/>
</g>
<g filter="url(#filter2_d_0_1)">
<path fill-rule="evenodd" clip-rule="evenodd" d="M282.789 70.7398C282.789 68.5307 280.998 66.7398 278.789 66.7398H266.789C264.579 66.7398 262.789 68.5307 262.789 70.7398V92.7398C262.789 94.9489 260.998 96.7398 258.789 96.7398H236.789C234.579 96.7398 232.789 98.5307 232.789 100.74V112.74C232.789 114.949 234.579 116.74 236.789 116.74H258.789C260.998 116.74 262.789 118.531 262.789 120.74V142.74C262.789 144.949 264.579 146.74 266.789 146.74H278.789C280.998 146.74 282.789 144.949 282.789 142.74V120.74C282.789 118.531 284.579 116.74 286.789 116.74H308.789C310.998 116.74 312.789 114.949 312.789 112.74V100.74C312.789 98.5307 310.998 96.7398 308.789 96.7398H286.789C284.579 96.7398 282.789 94.9489 282.789 92.7398V70.7398Z" fill="#C6C6C6"/>
</g>
<g filter="url(#filter3_d_0_1)">
<path d="M456.673 9.35085C456.227 17.6298 450.272 19.5722 447.056 12.4714C446.642 11.5161 446.165 10.0514 446.069 9.25533L445.846 7.79059L443.458 8.26822L441.102 8.74585L441.357 10.0514C441.802 12.3758 441.611 15.369 440.879 16.8019C440.051 18.4258 439.573 18.8398 438.14 19.0627C436.517 19.3174 435.561 18.9672 434.065 17.6298C432.887 16.5472 430.944 13.2356 430.944 12.2166C430.944 12.0256 430.849 11.8345 430.753 11.8345C430.403 11.8345 426.677 13.2037 426.423 13.3948C426.295 13.5222 426.391 14.2864 426.646 15.1461C427.346 17.5024 427.282 20.5593 426.454 22.024C424.608 25.3356 420.277 24.2848 417.475 19.8906L416.201 17.8845L414.577 18.8398C413.686 19.3811 412.762 19.9224 412.539 20.0498C412.221 20.2408 412.317 20.7185 412.953 22.1195C414.546 25.5585 414.323 28.8382 412.444 30.4621C410.533 32.0542 407.094 31.0353 404.452 28.1058L402.955 26.4182L401.013 27.9148C399.962 28.7108 399.102 29.4432 399.102 29.5069C399.102 29.5706 399.516 30.3029 400.057 31.1308C401.968 34.1558 402 37.4356 400.153 38.9003C398.402 40.2695 394.389 39.3779 391.715 37.0534L390.6 36.0663L389.677 37.0853C389.167 37.6584 388.403 38.4863 387.957 38.9958L387.193 39.8555L388.34 41.0655C389.772 42.5303 390.791 44.5363 391.014 46.2876C391.173 47.4021 391.046 47.8797 390.441 48.7713C388.976 50.9366 386.111 51.1595 382.64 49.4082C381.621 48.8669 380.729 48.4529 380.602 48.4529C380.506 48.4529 379.838 49.3126 379.105 50.3634L377.768 52.2421L378.755 52.9745C380.124 53.9934 381.748 56.3179 382.258 57.91C382.799 59.8205 382.258 61.54 380.825 62.4316C379.424 63.3232 376.176 63.355 373.947 62.4953L372.323 61.8903L371.272 63.9918L370.221 66.1253L371.941 67.2397C375.412 69.4687 376.622 73.0987 374.616 75.1366C373.374 76.3466 371.336 76.8879 368.502 76.7605L366.209 76.6331L365.827 77.7476C365.604 78.3526 365.35 79.3716 365.254 79.9765C365.031 81.0592 365.063 81.1229 366.464 81.6642C368.502 82.5239 370.667 84.5618 371.113 86.0265C372.005 88.9879 369.107 91.4397 364.713 91.4397H362.866L362.643 93.5731C362.516 94.7194 362.356 95.8657 362.293 96.0568C362.197 96.2797 362.866 96.6299 363.98 96.9484C367.547 97.9355 369.807 100.387 369.362 102.775C368.98 104.718 366.177 106.533 362.643 107.106C362.07 107.202 362.006 107.488 361.911 109.685L361.815 112.137H362.675C364.553 112.137 367.324 113.188 368.566 114.366C369.935 115.672 370.158 116.882 369.362 118.442C368.566 119.97 365.891 122.008 364.649 122.008C363.503 122.04 363.375 122.486 363.757 124.938L364.14 127.294H366.114C371.208 127.23 373.724 130.287 371.591 133.949C370.858 135.159 368.661 136.974 367.929 136.974C367.26 136.974 367.26 137.738 367.929 139.776C368.311 140.954 368.661 141.941 368.693 142.005C368.725 142.037 369.489 141.909 370.412 141.718C373.469 141.081 376.813 142.483 377.29 144.584C377.672 146.335 376.908 148.087 374.838 150.156L372.896 152.067L373.82 153.786C375.03 156.047 375.189 156.143 376.653 155.601C378.246 155.028 381.175 154.996 382.194 155.538C385.028 156.971 384.932 160.696 381.971 163.785L380.857 164.963L382.194 166.746C382.958 167.733 383.754 168.625 383.977 168.689C384.2 168.784 384.996 168.561 385.728 168.179C388.499 166.778 391.715 167.096 392.893 168.943C393.784 170.281 393.434 173.146 392.161 175.216C391.587 176.108 391.173 176.936 391.205 177.063C391.269 177.19 392.033 177.955 392.957 178.782L394.581 180.311L396.141 179.228C398.274 177.732 399.516 177.318 401.204 177.509C403.369 177.732 404.261 178.782 404.452 181.139C404.547 182.604 404.42 183.4 403.783 184.992L402.955 186.966L404.834 188.24C405.853 188.94 406.84 189.513 406.967 189.513C407.126 189.513 407.763 189.004 408.368 188.367C410.502 186.138 413.431 185.31 415.119 186.425C416.838 187.539 417.379 190.469 416.456 193.525C416.201 194.385 415.978 195.117 415.978 195.149C415.978 195.309 419.768 197.155 420.054 197.155C420.213 197.155 420.755 196.582 421.264 195.85C423.111 193.143 426.072 191.901 428.047 192.92C429.766 193.812 430.467 195.531 430.435 198.62V201.199L432.664 201.932C433.905 202.314 434.956 202.537 434.988 202.377C435.052 202.218 435.529 201.327 436.039 200.403C437.313 198.238 439.191 196.837 440.911 196.837C443.267 196.837 445.273 199.798 445.273 203.301C445.273 204.957 445.369 205.02 448.266 205.307L450.304 205.53L450.782 203.938C451.801 200.531 453.074 199.066 455.24 198.843C457.946 198.525 459.857 200.499 460.685 204.543L461.099 206.549L463.487 206.644L465.875 206.74L466.098 205.052C466.544 201.613 468.613 198.747 470.683 198.747C472.753 198.747 475.014 200.913 476.096 203.906C476.669 205.593 476.701 205.593 479.503 205.02L481.414 204.606L481.446 202.409C481.478 199.735 482.274 197.697 483.77 196.423C484.98 195.404 485.713 195.372 487.464 196.168C489.024 196.869 490.648 198.684 491.476 200.594C491.826 201.422 492.24 201.932 492.495 201.836C492.686 201.772 493.705 201.422 494.724 201.104C496.539 200.531 496.603 200.499 496.411 199.544C495.679 195.563 495.934 193.462 497.303 191.965C498.991 190.118 501.538 190.564 504.022 193.143C504.913 194.035 505.869 195.117 506.155 195.563L506.665 196.359L508.734 195.277L510.804 194.194L510.167 192.761C509.339 190.914 509.085 187.762 509.594 186.202C510.677 182.858 514.752 183.113 518.414 186.711L520.038 188.335L521.121 187.635C521.694 187.284 522.586 186.616 523.095 186.17L523.987 185.342L523.191 184.164C521.917 182.349 521.28 180.597 521.28 178.846C521.28 176.904 521.726 175.98 522.968 175.344C525.133 174.229 528.413 175.025 530.896 177.286L532.234 178.464L533.826 176.904C534.686 176.076 535.386 175.248 535.386 175.089C535.386 174.93 534.877 174.229 534.24 173.529C532.075 171.109 531.087 168.02 531.915 166.173C533.062 163.657 538.093 163.689 541.341 166.269C541.786 166.619 542.264 166.905 542.391 166.905C542.519 166.905 543.251 166.077 544.047 165.027L545.512 163.18L543.601 161.492C539.43 157.799 539.112 153.5 542.965 152.226C544.493 151.717 547.136 152.067 549.206 152.99L550.893 153.786L551.944 151.589C552.549 150.379 552.963 149.36 552.867 149.297C552.804 149.233 551.976 148.755 551.021 148.246C546.881 146.049 545.257 142.037 547.518 139.649C548.824 138.248 552.103 137.834 555.001 138.725C555.861 138.98 556.72 139.203 556.943 139.203C557.262 139.203 558.631 135.764 558.631 134.936C558.631 134.745 557.803 134.331 556.784 134.044C554.523 133.376 552.167 131.847 551.307 130.478C549.046 126.784 552.931 123.536 558.981 124.046L561.401 124.237L561.783 121.817C562.006 120.511 562.133 119.365 562.07 119.333C562.038 119.301 560.987 119.079 559.777 118.856C554.651 117.964 551.753 114.748 553.441 111.819C554.3 110.354 557.485 108.634 559.363 108.634C560.096 108.634 561.242 108.539 561.911 108.443L563.089 108.22V105.737V103.221H560.923C557.102 103.221 554.428 102.011 553.377 99.846C552.867 98.7634 552.867 98.6042 553.377 97.2986C554.268 94.9742 556.625 93.4457 560.541 92.6815C561.815 92.4268 562.42 92.1721 562.325 91.9173C562.261 91.7263 562.102 90.7392 561.974 89.7839C561.656 87.3321 561.56 87.2047 559.873 87.5868C556.593 88.351 553.218 87.8734 551.562 86.4086C549.237 84.2752 550.511 80.6134 554.332 78.48C555.383 77.9068 556.784 77.3337 557.421 77.2381L558.599 77.0471L557.707 74.5952C557.198 73.2579 556.688 72.2071 556.529 72.2389C556.37 72.2708 555.415 72.5892 554.428 72.9713C550.893 74.2131 546.531 73.5126 545.639 71.5066C544.302 68.6089 546.595 64.9153 550.925 63.0366C551.753 62.6863 552.454 62.336 552.517 62.3042C552.708 62.145 550.32 57.6553 550.097 57.7508C549.97 57.8145 549.015 58.2921 547.964 58.8334C542.71 61.5718 537.934 60.4574 537.934 56.5089C537.934 54.4392 540.959 50.2679 543.474 48.8669C544.047 48.5484 543.984 48.3892 542.423 46.415L540.736 44.3134L539.494 45.3961C535.927 48.644 531.183 49.2808 529.655 46.7653C528.222 44.4726 529.527 40.2058 532.361 37.6903L533.762 36.4484L531.947 34.6653C530.928 33.6782 529.973 32.8503 529.814 32.8503C529.623 32.8503 529.145 33.3598 528.699 33.9648C527.553 35.5569 525.292 37.1808 523.382 37.7858C521.917 38.2634 521.535 38.2634 520.389 37.9132C518.478 37.2763 517.714 36.13 517.746 33.8692C517.746 31.7995 518.574 29.6661 520.134 27.7237C520.675 27.0232 521.057 26.2908 520.962 26.0679C520.898 25.845 519.975 25.0808 518.924 24.3485L517.045 23.0429L516.185 24.3803C515.071 26.1635 512.937 28.2332 511.536 28.9337C510.9 29.2521 509.69 29.5069 508.862 29.5069C507.556 29.5069 507.174 29.3795 506.537 28.6153C505.55 27.469 505.041 25.4629 505.295 23.8071C505.55 22.3424 506.824 19.2856 507.556 18.4895C507.97 18.0119 507.811 17.8527 505.805 16.8019C504.595 16.1651 503.48 15.6556 503.321 15.6556C503.194 15.6556 502.812 16.3561 502.493 17.2158C501.347 20.4956 497.462 23.6161 495.106 23.1703C493.96 22.9474 492.59 21.6419 492.113 20.3364C491.571 18.9353 491.731 16.0058 492.399 14.0635C492.75 13.1082 493.068 12.1848 493.132 12.0256C493.195 11.8027 488.96 10.2424 488.228 10.2424C488.101 10.2424 487.941 10.8474 487.814 11.548C487.528 13.3948 486.19 16.1014 484.98 17.2795C482.592 19.6995 480.236 19.5085 478.548 16.8019C477.625 15.3053 477.593 15.0506 477.561 11.548L477.529 7.85427L476.287 7.63138C475.587 7.50401 474.536 7.40849 473.899 7.40849L472.721 7.37664L472.339 9.47822C471.575 14.0635 468.836 17.1522 466.193 16.4835C463.964 15.9422 462.213 12.9172 461.927 9.1598L461.735 6.7398H459.284H456.832L456.673 9.35085ZM468.677 25.8769C488.642 27.1824 502.43 34.6971 503.162 44.5682C503.449 48.9305 501.729 52.5287 497.176 57.0503C493.45 60.8076 488.833 63.8963 482.369 67.0805C469.505 73.3534 454.571 77.3655 438.745 78.7347C433.492 79.1805 422.57 78.9258 418.526 78.2252C406.808 76.251 400.694 72.016 399.421 64.9471C398.051 57.4642 404.802 47.5295 416.615 39.6645C429.161 31.29 444.987 26.259 460.239 25.7495C461.735 25.6858 463.105 25.6221 463.264 25.5903C463.455 25.5585 465.875 25.6858 468.677 25.8769ZM516.44 54.3755C518 55.2034 519.656 57.2732 520.134 59.0563C520.898 61.9221 519.274 65.4247 516.376 67.1442C511.759 69.8508 505.455 66.1571 505.455 60.7121C505.455 57.9737 507.493 55.0124 510.072 54.0253C511.791 53.3884 514.848 53.5476 516.44 54.3755ZM531.31 73.4171C543.187 79.0531 547.582 104.527 540.799 128.695C536.31 144.711 526.216 160.569 515.294 168.816C509.499 173.178 503.417 175.121 498.927 174.102C491.253 172.287 487.241 163.657 487.241 148.915C487.241 138.407 489.151 127.517 493.004 115.608C500.137 93.7005 512.11 76.3466 522.458 72.9713C525.197 72.0797 528.859 72.2389 531.31 73.4171ZM401.841 80.1358C404.388 81.6323 405.789 84.721 405.311 87.6186C404.993 89.4973 403.337 91.7581 401.649 92.6178C399.707 93.605 396.555 93.6368 394.963 92.6815C392.256 91.0576 391.046 89.0515 391.046 86.345C391.078 84.1479 391.683 82.715 393.307 81.1547C395.695 78.8302 398.975 78.4481 401.841 80.1358ZM468.518 87.9052C472.88 89.3063 477.338 92.8089 479.599 96.6299C485.999 107.297 481.223 120.989 469.537 125.606C467.467 126.402 466.512 126.593 463.582 126.721C457.341 126.975 452.915 125.256 448.617 120.925C444.445 116.754 442.726 112.678 442.726 106.979C442.726 101.247 444.509 96.9484 448.617 92.8726C451.482 90.0068 453.87 88.5739 457.437 87.6186C460.494 86.7908 465.493 86.9181 468.518 87.9052ZM401.586 101.948C406.649 103.158 412.922 106.214 419.322 110.577C429.957 117.805 442.312 130.191 450.113 141.464C458.551 153.659 463.296 165.664 462.659 173.274C462.181 178.782 459.952 182.381 455.717 184.355C453.138 185.597 451.005 186.011 447.534 186.011C432.759 186.011 411.903 173.815 399.007 157.576C387.894 143.661 381.366 126.657 382.576 114.907C383.308 107.775 386.302 103.444 391.619 101.757C393.625 101.12 398.529 101.215 401.586 101.948ZM479.694 165.695C481.35 166.173 483.42 168.02 484.152 169.58C484.853 171.14 484.948 174.134 484.343 175.598C483.133 178.464 480.618 180.088 477.402 180.12C475.619 180.12 475.077 179.992 473.74 179.165C471.67 177.859 470.428 175.821 470.205 173.306C470.046 171.65 470.142 171.14 470.874 169.644C472.498 166.3 476.224 164.645 479.694 165.695Z" fill="#C6C6C6"/>
</g>
<g filter="url(#filter4_d_0_1)">
<path fill-rule="evenodd" clip-rule="evenodd" d="M40.8759 74.2435L40.8759 139.235L97.1597 171.73L153.444 139.235V74.2435L97.1598 41.748L40.8759 74.2435ZM65.2475 78.9339L97.1597 97.3584L129.072 78.9339L97.1597 60.5093L65.2475 78.9339ZM137.196 93.0048L105.284 111.429V148.278L137.196 129.854V93.0048ZM89.0358 148.278V111.429L57.1236 93.0048L57.1236 129.854L89.0358 148.278Z" fill="#EF3939"/>
<path fill-rule="evenodd" clip-rule="evenodd" d="M26.8052 66.1204L26.8052 147.359L97.16 187.979L167.515 147.359V66.1204L97.16 25.5011L26.8052 66.1204ZM10.5574 56.7398L97.16 6.73981L183.763 56.7398V156.74L97.16 206.74L10.5574 156.74L10.5574 56.7398Z" fill="#C6C6C6"/>
</g>
<defs>
<filter id="filter0_d_0_1" x="757.457" y="50.8727" width="194.959" height="124.975" filterUnits="userSpaceOnUse" color-interpolation-filters="sRGB">
<feFlood flood-opacity="0" result="BackgroundImageFix"/>
<feColorMatrix in="SourceAlpha" type="matrix" values="0 0 0 0 0 0 0 0 0 0 0 0 0 0 0 0 0 0 127 0" result="hardAlpha"/>
<feOffset dy="4"/>
<feGaussianBlur stdDeviation="5"/>
<feComposite in2="hardAlpha" operator="out"/>
<feColorMatrix type="matrix" values="0 0 0 0 0 0 0 0 0 0 0 0 0 0 0 0 0 0 0.25 0"/>
<feBlend mode="normal" in2="BackgroundImageFix" result="effect1_dropShadow_0_1"/>
<feBlend mode="normal" in="SourceGraphic" in2="effect1_dropShadow_0_1" result="shape"/>
</filter>
<filter id="filter1_d_0_1" x="615.273" y="60.7398" width="100" height="100" filterUnits="userSpaceOnUse" color-interpolation-filters="sRGB">
<feFlood flood-opacity="0" result="BackgroundImageFix"/>
<feColorMatrix in="SourceAlpha" type="matrix" values="0 0 0 0 0 0 0 0 0 0 0 0 0 0 0 0 0 0 127 0" result="hardAlpha"/>
<feOffset dy="4"/>
<feGaussianBlur stdDeviation="5"/>
<feComposite in2="hardAlpha" operator="out"/>
<feColorMatrix type="matrix" values="0 0 0 0 0 0 0 0 0 0 0 0 0 0 0 0 0 0 0.25 0"/>
<feBlend mode="normal" in2="BackgroundImageFix" result="effect1_dropShadow_0_1"/>
<feBlend mode="normal" in="SourceGraphic" in2="effect1_dropShadow_0_1" result="shape"/>
</filter>
<filter id="filter2_d_0_1" x="222.789" y="60.7398" width="100" height="100" filterUnits="userSpaceOnUse" color-interpolation-filters="sRGB">
<feFlood flood-opacity="0" result="BackgroundImageFix"/>
<feColorMatrix in="SourceAlpha" type="matrix" values="0 0 0 0 0 0 0 0 0 0 0 0 0 0 0 0 0 0 127 0" result="hardAlpha"/>
<feOffset dy="4"/>
<feGaussianBlur stdDeviation="5"/>
<feComposite in2="hardAlpha" operator="out"/>
<feColorMatrix type="matrix" values="0 0 0 0 0 0 0 0 0 0 0 0 0 0 0 0 0 0 0.25 0"/>
<feBlend mode="normal" in2="BackgroundImageFix" result="effect1_dropShadow_0_1"/>
<feBlend mode="normal" in="SourceGraphic" in2="effect1_dropShadow_0_1" result="shape"/>
</filter>
<filter id="filter3_d_0_1" x="357.815" y="6.73981" width="209.274" height="208" filterUnits="userSpaceOnUse" color-interpolation-filters="sRGB">
<feFlood flood-opacity="0" result="BackgroundImageFix"/>
<feColorMatrix in="SourceAlpha" type="matrix" values="0 0 0 0 0 0 0 0 0 0 0 0 0 0 0 0 0 0 127 0" result="hardAlpha"/>
<feOffset dy="4"/>
<feGaussianBlur stdDeviation="2"/>
<feComposite in2="hardAlpha" operator="out"/>
<feColorMatrix type="matrix" values="0 0 0 0 0 0 0 0 0 0 0 0 0 0 0 0 0 0 0.25 0"/>
<feBlend mode="normal" in2="BackgroundImageFix" result="effect1_dropShadow_0_1"/>
<feBlend mode="normal" in="SourceGraphic" in2="effect1_dropShadow_0_1" result="shape"/>
</filter>
<filter id="filter4_d_0_1" x="0.557434" y="0.739807" width="193.205" height="220" filterUnits="userSpaceOnUse" color-interpolation-filters="sRGB">
<feFlood flood-opacity="0" result="BackgroundImageFix"/>
<feColorMatrix in="SourceAlpha" type="matrix" values="0 0 0 0 0 0 0 0 0 0 0 0 0 0 0 0 0 0 127 0" result="hardAlpha"/>
<feOffset dy="4"/>
<feGaussianBlur stdDeviation="5"/>
<feComposite in2="hardAlpha" operator="out"/>
<feColorMatrix type="matrix" values="0 0 0 0 0 0 0 0 0 0 0 0 0 0 0 0 0 0 0.25 0"/>
<feBlend mode="normal" in2="BackgroundImageFix" result="effect1_dropShadow_0_1"/>
<feBlend mode="normal" in="SourceGraphic" in2="effect1_dropShadow_0_1" result="shape"/>
</filter>
</defs>
</svg>
