<svg width="574" height="221" viewBox="0 0 574 221" fill="none" xmlns="http://www.w3.org/2000/svg">
<g filter="url(#filter0_d_0_1)">
<mask id="mask0_0_1" style="mask-type:luminance" maskUnits="userSpaceOnUse" x="388" y="45" width="176" height="106">
<path d="M388.457 45.2209H563.416V150.196H388.457V45.2209Z" fill="white"/>
</mask>
<g mask="url(#mask0_0_1)">
<path fill-rule="evenodd" clip-rule="evenodd" d="M475.936 45.2209C452.608 45.2209 438.028 56.8848 432.196 80.2127C440.944 68.5488 451.15 64.1748 462.814 67.0908C469.469 68.7529 474.226 73.5837 479.49 78.9264C488.067 87.6323 497.994 97.7086 519.676 97.7086C543.004 97.7086 557.584 86.0447 563.416 62.7168C554.668 74.3807 544.462 78.7547 532.798 75.8387C526.143 74.1766 521.387 69.3458 516.122 64.0031C507.546 55.2972 497.618 45.2209 475.936 45.2209ZM432.196 97.7086C408.869 97.7086 394.289 109.373 388.457 132.7C397.205 121.036 407.411 116.663 419.075 119.579C425.729 121.244 430.486 126.071 435.751 131.414C444.327 140.12 454.254 150.196 475.936 150.196C499.264 150.196 513.844 138.532 519.676 115.205C510.928 126.868 500.722 131.242 489.058 128.326C482.403 126.664 477.647 121.834 472.382 116.491C463.806 107.785 453.878 97.7086 432.196 97.7086Z" fill="#38BDF8"/>
</g>
</g>
<g filter="url(#filter1_d_0_1)">
<path fill-rule="evenodd" clip-rule="evenodd" d="M296.273 59.088C296.273 56.8788 294.482 55.088 292.273 55.088H280.273C278.064 55.088 276.273 56.8788 276.273 59.088V81.088C276.273 83.2971 274.482 85.088 272.273 85.088H250.273C248.064 85.088 246.273 86.8788 246.273 89.088V101.088C246.273 103.297 248.064 105.088 250.273 105.088H272.273C274.482 105.088 276.273 106.879 276.273 109.088V131.088C276.273 133.297 278.064 135.088 280.273 135.088H292.273C294.482 135.088 296.273 133.297 296.273 131.088V109.088C296.273 106.879 298.064 105.088 300.273 105.088H322.273C324.482 105.088 326.273 103.297 326.273 101.088V89.088C326.273 86.8788 324.482 85.088 322.273 85.088H300.273C298.064 85.088 296.273 83.2971 296.273 81.088V59.088Z" fill="#C6C6C6"/>
</g>
<g filter="url(#filter2_d_0_1)">
<path fill-rule="evenodd" clip-rule="evenodd" d="M41.2025 74.2196L41.2025 139.211L97.4863 171.706L153.77 139.211V74.2196L97.4863 41.7241L41.2025 74.2196ZM65.5741 78.9099L97.4863 97.3345L129.399 78.9099L97.4863 60.4854L65.5741 78.9099ZM137.522 92.9809L105.61 111.405V148.254L137.522 129.83V92.9809ZM89.3624 148.254V111.405L57.4502 92.9809L57.4502 129.83L89.3624 148.254Z" fill="#EF3939"/>
<path fill-rule="evenodd" clip-rule="evenodd" d="M27.1318 66.0965L27.1318 147.335L97.4866 187.955L167.841 147.335V66.0965L97.4866 25.4772L27.1318 66.0965ZM10.884 56.7159L97.4866 6.71588L184.089 56.7159V156.716L97.4866 206.716L10.884 156.716L10.884 56.7159Z" fill="#C6C6C6"/>
</g>
<defs>
<filter id="filter0_d_0_1" x="378.457" y="39.2209" width="194.959" height="124.975" filterUnits="userSpaceOnUse" color-interpolation-filters="sRGB">
<feFlood flood-opacity="0" result="BackgroundImageFix"/>
<feColorMatrix in="SourceAlpha" type="matrix" values="0 0 0 0 0 0 0 0 0 0 0 0 0 0 0 0 0 0 127 0" result="hardAlpha"/>
<feOffset dy="4"/>
<feGaussianBlur stdDeviation="5"/>
<feComposite in2="hardAlpha" operator="out"/>
<feColorMatrix type="matrix" values="0 0 0 0 0 0 0 0 0 0 0 0 0 0 0 0 0 0 0.25 0"/>
<feBlend mode="normal" in2="BackgroundImageFix" result="effect1_dropShadow_0_1"/>
<feBlend mode="normal" in="SourceGraphic" in2="effect1_dropShadow_0_1" result="shape"/>
</filter>
<filter id="filter1_d_0_1" x="236.273" y="49.088" width="100" height="100" filterUnits="userSpaceOnUse" color-interpolation-filters="sRGB">
<feFlood flood-opacity="0" result="BackgroundImageFix"/>
<feColorMatrix in="SourceAlpha" type="matrix" values="0 0 0 0 0 0 0 0 0 0 0 0 0 0 0 0 0 0 127 0" result="hardAlpha"/>
<feOffset dy="4"/>
<feGaussianBlur stdDeviation="5"/>
<feComposite in2="hardAlpha" operator="out"/>
<feColorMatrix type="matrix" values="0 0 0 0 0 0 0 0 0 0 0 0 0 0 0 0 0 0 0.25 0"/>
<feBlend mode="normal" in2="BackgroundImageFix" result="effect1_dropShadow_0_1"/>
<feBlend mode="normal" in="SourceGraphic" in2="effect1_dropShadow_0_1" result="shape"/>
</filter>
<filter id="filter2_d_0_1" x="0.884033" y="0.715881" width="193.205" height="220" filterUnits="userSpaceOnUse" color-interpolation-filters="sRGB">
<feFlood flood-opacity="0" result="BackgroundImageFix"/>
<feColorMatrix in="SourceAlpha" type="matrix" values="0 0 0 0 0 0 0 0 0 0 0 0 0 0 0 0 0 0 127 0" result="hardAlpha"/>
<feOffset dy="4"/>
<feGaussianBlur stdDeviation="5"/>
<feComposite in2="hardAlpha" operator="out"/>
<feColorMatrix type="matrix" values="0 0 0 0 0 0 0 0 0 0 0 0 0 0 0 0 0 0 0.25 0"/>
<feBlend mode="normal" in2="BackgroundImageFix" result="effect1_dropShadow_0_1"/>
<feBlend mode="normal" in="SourceGraphic" in2="effect1_dropShadow_0_1" result="shape"/>
</filter>
</defs>
</svg>
